<svg xmlns="http://www.w3.org/2000/svg" viewBox="0 0 43.439 42.366"><defs><clipPath id="a"><path d="M0 551.986h530.973V0H0z"/></clipPath></defs><path d="M-181.76 592.73h707.942V224.753H-181.76z" fill="#231f20"/><g clip-path="url(#a)" transform="matrix(1.3333 0 0 -1.3333 -181.76 592.73)"><g fill="#1b1817" fill-rule="evenodd"><path d="M152.61 444.55c-8.995 0-16.288-7.293-16.288-16.29 0-7.197 4.667-13.302 11.14-15.457.815-.149 1.112.354 1.112.786 0 .386-.014 1.411-.022 2.77-4.531-.984-5.487 2.184-5.487 2.184-.741 1.881-1.809 2.382-1.809 2.382-1.479 1.011.112.991.112.991 1.635-.116 2.495-1.679 2.495-1.679 1.453-2.489 3.813-1.77 4.741-1.354.148 1.053.568 1.771 1.034 2.178-3.617.411-7.42 1.809-7.42 8.051 0 1.778.635 3.232 1.677 4.371-.168.412-.727 2.068.159 4.311 0 0 1.368.438 4.48-1.67 1.299.361 2.693.542 4.078.548a15.625 15.625 0 004.078-.548c3.11 2.108 4.475 1.67 4.475 1.67.889-2.243.33-3.899.162-4.311 1.044-1.139 1.675-2.593 1.675-4.371 0-6.258-3.809-7.635-7.438-8.038.585-.503 1.106-1.497 1.106-3.017 0-2.177-.02-3.934-.02-4.468 0-.436.293-.943 1.12-.784 6.468 2.159 11.131 8.26 11.131 15.455 0 8.997-7.294 16.29-16.291 16.29"/><path d="M152.61 444.55c-8.995 0-16.288-7.293-16.288-16.29 0-7.197 4.667-13.302 11.14-15.457.815-.149 1.112.354 1.112.786 0 .386-.014 1.411-.022 2.77-4.531-.984-5.487 2.184-5.487 2.184-.741 1.881-1.809 2.382-1.809 2.382-1.479 1.011.112.991.112.991 1.635-.116 2.495-1.679 2.495-1.679 1.453-2.489 3.813-1.77 4.741-1.354.148 1.053.568 1.771 1.034 2.178-3.617.411-7.42 1.809-7.42 8.051 0 1.778.635 3.232 1.677 4.371-.168.412-.727 2.068.159 4.311 0 0 1.368.438 4.48-1.67 1.299.361 2.693.542 4.078.548a15.625 15.625 0 004.078-.548c3.11 2.108 4.475 1.67 4.475 1.67.889-2.243.33-3.899.162-4.311 1.044-1.139 1.675-2.593 1.675-4.371 0-6.258-3.809-7.635-7.438-8.038.585-.503 1.106-1.497 1.106-3.017 0-2.177-.02-3.934-.02-4.468 0-.436.293-.943 1.12-.784 6.468 2.159 11.131 8.26 11.131 15.455 0 8.997-7.294 16.29-16.291 16.29"/></g><path d="M350.61 493.55c-33.347 0-60.388-27.035-60.388-60.388 0-26.68 17.303-49.316 41.297-57.301 3.018-.559 4.126 1.31 4.126 2.905 0 1.439-.056 6.197-.082 11.243-16.8-3.653-20.345 7.125-20.345 7.125-2.747 6.979-6.705 8.836-6.705 8.836-5.479 3.748.413 3.671.413 3.671 6.064-.426 9.257-6.224 9.257-6.224 5.386-9.231 14.127-6.562 17.573-5.019.543 3.902 2.107 6.567 3.834 8.075-13.413 1.526-27.513 6.705-27.513 29.844 0 6.592 2.359 11.98 6.222 16.209-.627 1.521-2.694 7.663.586 15.981 0 0 5.071 1.622 16.61-6.191 4.817 1.338 9.983 2.009 15.115 2.033 5.132-.024 10.302-.695 15.128-2.033 11.526 7.813 16.59 6.191 16.59 6.191 3.287-8.318 1.22-14.46.593-15.981 3.872-4.229 6.214-9.617 6.214-16.209 0-23.195-14.127-28.301-27.574-29.796 2.166-1.874 4.096-5.549 4.096-11.183 0-8.08-.069-14.583-.069-16.572 0-1.608 1.086-3.49 4.147-2.898 23.982 7.994 41.263 30.622 41.263 57.294 0 33.353-27.037 60.388-60.388 60.388" fill="#1b1817" fill-rule="evenodd"/><path d="M313.09 406.85c-.133-.301-.605-.391-1.035-.185-.439.198-.684.607-.542.908.13.308.602.394 1.04.188.438-.197.688-.61.537-.911M315.54 404.12c-.288-.267-.852-.143-1.233.279-.396.421-.469.985-.177 1.255.297.267.843.142 1.238-.279.396-.426.473-.984.172-1.255M317.92 400.65c-.37-.258-.976-.017-1.35.52-.37.538-.37 1.182.009 1.44.374.258.971.025 1.35-.507.369-.546.369-1.19-.009-1.453M321.18 397.29c-.331-.365-1.036-.267-1.552.232-.528.486-.675 1.177-.344 1.542.336.366 1.045.263 1.565-.231.524-.486.683-1.182.331-1.543M325.68 395.33c-.147-.473-.825-.687-1.509-.486-.683.207-1.13.76-.992 1.238.142.476.824.7 1.513.485.682-.206 1.13-.756.988-1.237M330.62 394.97c.017-.498-.563-.911-1.281-.92-.722-.016-1.307.387-1.315.877 0 .503.568.911 1.289.924.718.014 1.307-.387 1.307-.881M335.22 395.75c.086-.485-.413-.984-1.126-1.117-.701-.129-1.35.172-1.439.653-.087.498.42.997 1.121 1.126.714.124 1.353-.168 1.444-.662" fill="#1b1817"/><path d="M224.9 499.49v-.5" fill="none" stroke="#3a7fc3" stroke-linecap="round" stroke-miterlimit="10"/><path d="M224.9 496.99V363" fill="none" stroke="#3a7fc3" stroke-dasharray="1, 2" stroke-linecap="round" stroke-miterlimit="10"/><path d="M224.9 362v-.5" fill="none" stroke="#3a7fc3" stroke-linecap="round" stroke-miterlimit="10"/><path d="M133.28 347.48c-.38.276-.866.414-1.458.414-.24 0-.476-.024-.708-.071a1.925 1.925 0 01-.618-.24 1.274 1.274 0 01-.432-.452c-.108-.187-.162-.421-.162-.701 0-.264.078-.478.234-.642.156-.165.364-.298.624-.402s.554-.19.882-.259c.328-.067.662-.141 1.002-.22.34-.08.674-.175 1.002-.284.328-.107.622-.253.882-.437s.468-.416.624-.695c.156-.281.234-.633.234-1.057 0-.456-.102-.846-.306-1.17s-.466-.588-.786-.792-.678-.352-1.074-.444a5.209 5.209 0 00-2.544.042c-.428.12-.804.302-1.128.546s-.58.556-.768.936-.282.829-.282 1.35h1.08c0-.361.07-.67.21-.93a1.9 1.9 0 01.552-.642c.228-.167.494-.292.798-.372.304-.081.616-.12.936-.12.256 0 .514.024.774.073.26.047.494.129.702.246.208.115.376.273.504.472.128.201.192.457.192.769 0 .296-.078.536-.234.72-.156.183-.364.334-.624.45s-.554.21-.882.282l-1.002.223c-.34.075-.674.163-1.002.263s-.622.232-.882.396-.468.376-.624.636c-.156.259-.234.586-.234.978 0 .432.088.806.264 1.122s.41.575.702.78c.292.204.624.356.996.456s.754.15 1.146.15c.44 0 .848-.053 1.224-.156.376-.104.706-.268.99-.493.284-.223.508-.505.672-.845s.254-.746.27-1.218h-1.08c-.064.616-.286 1.062-.666 1.338M137.55 346.29v-.912h.024c.464.705 1.132 1.057 2.004 1.057.384 0 .732-.08 1.044-.241.312-.16.532-.431.66-.816.208.336.482.596.822.78.34.185.714.277 1.122.277.312 0 .594-.035.846-.102a1.77 1.77 0 00.648-.318c.18-.145.32-.33.42-.559.1-.227.15-.502.15-.822v-4.547h-1.02v4.067c0 .193-.016.372-.048.54s-.092.315-.18.438c-.088.125-.21.223-.366.295s-.358.107-.606.107c-.504 0-.9-.143-1.188-.431-.288-.289-.432-.672-.432-1.153v-3.863h-1.02v4.067c0 .201-.018.384-.054.552s-.098.314-.186.438a.871.871 0 01-.354.289 1.373 1.373 0 01-.57.101c-.296 0-.55-.059-.762-.179a1.742 1.742 0 01-.804-.955 1.48 1.48 0 01-.09-.45v-3.863h-1.02v6.203zM150.17 343.08a7.313 7.313 0 00-.654-.108c-.228-.029-.458-.06-.69-.097-.232-.035-.44-.094-.624-.174s-.334-.193-.45-.342c-.116-.148-.174-.349-.174-.605 0-.168.034-.311.102-.426a.844.844 0 01.264-.283c.108-.071.236-.123.384-.155a2.06 2.06 0 01.45-.048c.336 0 .624.045.864.137s.436.208.588.349c.152.139.264.291.336.455s.108.318.108.463v1.043a1.255 1.255 0 00-.504-.209m1.428-3.127c-.264 0-.474.074-.63.223-.156.147-.234.389-.234.725a2.428 2.428 0 00-.978-.725 3.213 3.213 0 00-1.206-.223c-.28 0-.544.03-.792.09s-.466.16-.654.301c-.188.139-.336.319-.444.539s-.162.486-.162.799c0 .351.06.639.18.863s.278.406.474.547c.196.139.42.246.672.318.252.071.51.131.774.18.28.055.546.097.798.125s.474.068.666.121c.192.051.344.127.456.227.112.101.168.246.168.439 0 .223-.042.403-.126.539a.857.857 0 01-.324.312c-.132.073-.28.121-.444.145a3.498 3.498 0 01-.486.035c-.432 0-.792-.082-1.08-.246s-.444-.474-.468-.93h-1.02c.016.384.096.708.24.973.144.264.336.478.576.642.24.163.516.282.828.354.312.071.64.108.984.108.28 0 .558-.02.834-.061.276-.039.526-.121.75-.246.224-.123.404-.298.54-.522s.204-.515.204-.876v-3.192c0-.24.014-.416.042-.527.028-.113.122-.168.282-.168.088 0 .192.019.312.059v-.792c-.176-.103-.42-.156-.732-.156M154.35 340.08h-1.02v8.567h1.02zM157.02 340.08H156v8.567h1.02zM101.85 330.99v.899h1.044v.924c0 .504.146.886.438 1.146s.718.39 1.278.39c.096 0 .206-.007.33-.023.124-.017.234-.041.33-.072v-.889a1.214 1.214 0 01-.288.066c-.104.012-.2.018-.288.018-.248 0-.44-.048-.576-.144s-.204-.28-.204-.551v-.865h1.2v-.899h-1.2v-5.305h-1.02v5.305zM106.92 327.78c.1-.292.238-.535.414-.732.176-.196.382-.346.618-.45.236-.103.486-.156.75-.156s.514.053.75.156c.236.104.442.254.618.45.176.197.314.44.414.732s.15.626.15 1.002c0 .377-.05.71-.15 1.002-.1.293-.238.538-.414.738a1.775 1.775 0 01-.618.456c-.236.105-.486.157-.75.157s-.514-.052-.75-.157a1.775 1.775 0 01-.618-.456 2.153 2.153 0 01-.414-.738c-.1-.292-.15-.625-.15-1.002 0-.376.05-.71.15-1.002m-1.038 2.28c.128.396.32.74.576 1.033.256.291.572.521.948.689s.808.252 1.296.252c.496 0 .93-.084 1.302-.252s.686-.398.942-.689c.256-.293.448-.637.576-1.033.128-.395.192-.822.192-1.278 0-.455-.064-.88-.192-1.272s-.32-.734-.576-1.026-.57-.52-.942-.684-.806-.246-1.302-.246c-.488 0-.92.082-1.296.246s-.692.392-.948.684-.448.634-.576 1.026-.192.817-.192 1.272c0 .456.064.883.192 1.278M113.84 331.89v-1.308h.024c.248.504.552.875.912 1.116.36.24.816.351 1.368.336v-1.081c-.408 0-.756-.055-1.044-.168a1.629 1.629 0 01-.696-.492c-.176-.215-.304-.477-.384-.785s-.12-.662-.12-1.062v-2.76h-1.02v6.204zM122.73 325.68v6.096h-2.208v.816c.288 0 .568.022.84.066.272.043.518.125.738.247.22.119.406.283.558.491s.256.472.312.792h.78v-8.508zM128.83 330.1c-.216-.1-.4-.236-.552-.408s-.266-.376-.341-.611a2.412 2.412 0 01-.115-.75c0-.264.04-.512.12-.745.08-.232.194-.431.342-.599s.332-.303.552-.403.47-.15.75-.15.526.05.738.15.39.239.534.414c.144.176.254.378.33.606s.114.467.114.715c0 .263-.034.513-.102.75-.068.235-.174.439-.318.611s-.324.311-.54.414c-.216.104-.468.156-.756.156s-.54-.05-.756-.15m1.848 2.838c-.248.232-.576.348-.984.348-.432 0-.78-.106-1.044-.318s-.47-.479-.618-.804a3.883 3.883 0 01-.306-1.05 8.603 8.603 0 01-.096-1.056l.024-.024c.24.392.538.675.894.852.356.176.766.265 1.23.265.408 0 .774-.07 1.098-.211.324-.14.596-.334.816-.582s.391-.539.51-.875c.12-.337.18-.701.18-1.093 0-.311-.048-.636-.144-.972s-.254-.642-.474-.918-.512-.503-.876-.683c-.364-.181-.814-.271-1.35-.271-.632 0-1.14.128-1.524.384s-.68.584-.888.984-.346.84-.414 1.321a9.9 9.9 0 00-.102 1.391c0 .583.05 1.15.15 1.699a4.6 4.6 0 00.511 1.457c.239.424.559.763.959 1.02.4.256.904.384 1.512.384.704 0 1.264-.186 1.68-.558s.656-.91.72-1.614h-1.02c-.048.385-.196.692-.444.924M138.32 329.68a2.303 2.303 0 01-.348.738c-.156.216-.356.388-.6.516s-.531.192-.858.192c-.344 0-.636-.068-.876-.204-.24-.137-.436-.314-.588-.534s-.262-.47-.33-.75a3.543 3.543 0 01-.102-.853c0-.303.036-.597.108-.88.071-.286.186-.536.341-.75.157-.217.358-.391.607-.523.247-.132.548-.198.9-.198.351 0 .646.068.882.204s.425.315.569.54c.145.224.249.481.312.768.064.289.097.584.097.888 0 .287-.038.571-.114.846m-3.666 2.202v-.841h.024c.168.345.431.595.792.75.36.157.756.235 1.188.235.48 0 .898-.088 1.254-.264s.652-.414.888-.714.413-.646.534-1.038c.12-.392.18-.809.18-1.248s-.058-.855-.175-1.248a2.914 2.914 0 00-.527-1.025 2.49 2.49 0 00-.888-.691c-.357-.168-.771-.252-1.242-.252-.153 0-.323.017-.511.048a2.805 2.805 0 00-.557.156c-.184.073-.359.17-.522.294a1.657 1.657 0 00-.414.462h-.024v-3.191h-1.02v8.567zM140.22 331.89h1.308l1.488-2.172 1.548 2.172h1.224l-2.136-2.856 2.4-3.348h-1.308l-1.728 2.568-1.728-2.568h-1.236l2.328 3.264zM150.22 328.54h-3.468v.961h3.468zM154.08 325.68v6.096h-2.208v.816c.288 0 .568.022.84.066.272.043.518.125.738.247.22.119.406.283.558.491s.256.472.312.792h.78v-8.508zM158.16 332.38c.112.369.286.686.522.955.236.268.53.478.882.629a3 3 0 001.2.228c.368 0 .714-.053 1.038-.162.324-.107.606-.263.846-.467s.43-.458.57-.762.21-.656.21-1.056c0-.377-.058-.709-.174-.996a2.834 2.834 0 00-.462-.774 3.845 3.845 0 00-.66-.618c-.248-.184-.504-.36-.768-.528-.264-.16-.528-.318-.792-.474a6.507 6.507 0 01-.726-.498 3.268 3.268 0 01-.564-.571 1.603 1.603 0 01-.306-.701h4.368v-.9h-5.556c.04.504.13.933.27 1.29.14.356.318.666.534.93s.46.496.732.696c.272.199.556.387.852.564.36.224.676.43.948.617a4.2 4.2 0 01.678.571c.18.191.316.4.408.624.092.223.138.483.138.78a1.49 1.49 0 01-1.008 1.428c-.2.072-.412.107-.636.107-.297 0-.55-.061-.762-.185s-.386-.286-.522-.487c-.136-.199-.234-.425-.294-.677s-.086-.506-.078-.762h-1.02c-.024.431.02.832.132 1.199M165.78 328.79c.02-.395.084-.768.192-1.115.108-.348.282-.643.522-.882.24-.24.576-.36 1.008-.36s.768.12 1.008.36c.24.239.414.534.522.882.108.347.172.72.192 1.115.02.397.03.755.03 1.074 0 .209-.002.439-.006.691s-.024.503-.06.756a5.654 5.654 0 01-.156.738c-.068.239-.168.45-.3.63a1.543 1.543 0 01-.498.437c-.2.113-.444.168-.732.168s-.532-.055-.732-.168a1.543 1.543 0 01-.498-.437 1.966 1.966 0 01-.3-.63 5.654 5.654 0 01-.156-.738c-.036-.253-.056-.504-.06-.756s-.006-.482-.006-.691c0-.319.01-.677.03-1.074m-1.086 2.035c.016.336.056.664.12.983.064.32.156.625.276.913s.284.54.492.756c.208.215.47.387.786.516.316.127.694.192 1.134.192s.818-.065 1.134-.192c.316-.129.578-.301.786-.516.208-.216.372-.468.492-.756s.212-.593.276-.913c.064-.319.104-.647.12-.983a20.463 20.463 0 000-1.944c-.016-.336-.056-.664-.12-.984s-.156-.623-.276-.906a2.416 2.416 0 00-.492-.75 2.159 2.159 0 00-.78-.51c-.312-.125-.692-.186-1.14-.186-.44 0-.818.061-1.134.186a2.15 2.15 0 00-.786.51 2.416 2.416 0 00-.492.75c-.12.283-.212.586-.276.906s-.104.648-.12.984a20.413 20.413 0 000 1.944M176.33 329.68a2.303 2.303 0 01-.348.738c-.156.216-.356.388-.6.516s-.531.192-.858.192c-.344 0-.636-.068-.876-.204-.24-.137-.436-.314-.588-.534s-.262-.47-.33-.75a3.543 3.543 0 01-.102-.853c0-.303.036-.597.108-.88.071-.286.186-.536.342-.75a1.73 1.73 0 01.606-.523c.248-.132.548-.198.9-.198.351 0 .646.068.882.204s.425.315.57.54c.144.224.248.481.312.768.063.289.096.584.096.888 0 .287-.038.571-.114.846m-3.666 2.202v-.841h.024c.168.345.431.595.792.75.36.157.756.235 1.188.235.48 0 .898-.088 1.254-.264s.652-.414.888-.714.413-.646.534-1.038c.12-.392.18-.809.18-1.248s-.058-.855-.174-1.248-.293-.734-.528-1.025c-.236-.293-.532-.523-.888-.691s-.771-.252-1.242-.252c-.152 0-.323.017-.51.048a2.814 2.814 0 00-.558.156c-.184.073-.358.17-.522.294s-.302.279-.414.462h-.024v-3.191h-1.02v8.567zM178.23 331.89h1.308l1.488-2.172 1.548 2.172h1.224l-2.136-2.856 2.4-3.348h-1.308l-1.728 2.568-1.728-2.568h-1.236l2.328 3.264zM335.63 348.65v-7.607h4.536v-.961h-5.676v8.568zM344.33 343.08a7.378 7.378 0 00-.654-.107 29.337 29.337 0 01-.691-.096 2.641 2.641 0 01-.624-.174 1.134 1.134 0 01-.449-.343c-.117-.147-.174-.35-.174-.606a.83.83 0 01.102-.426.846.846 0 01.264-.281 1.08 1.08 0 01.384-.156c.148-.033.297-.049.45-.049.335 0 .624.047.864.138.239.092.435.208.588.348a1.4 1.4 0 01.336.457c.071.163.108.317.108.461v1.045a1.283 1.283 0 00-.504-.211m1.428-3.125c-.264 0-.475.073-.631.221-.155.148-.233.39-.233.726a2.454 2.454 0 00-.978-.726 3.237 3.237 0 00-1.207-.221c-.279 0-.543.029-.791.09-.248.059-.467.16-.654.299-.188.14-.336.32-.444.541-.109.219-.162.486-.162.798 0 .351.06.639.18.864.119.223.277.405.474.545.196.14.419.246.671.318s.511.133.775.18c.279.056.546.098.798.127.252.027.473.067.666.119.192.053.343.129.456.228.111.1.168.246.168.438 0 .224-.042.404-.126.541a.876.876 0 01-.324.311 1.301 1.301 0 01-.445.144 3.353 3.353 0 01-.485.037c-.433 0-.792-.083-1.08-.246-.288-.164-.445-.475-.468-.931h-1.021c.017.384.097.708.241.972.143.264.336.479.575.643.24.164.517.281.828.353.313.072.641.108.984.108.281 0 .559-.02.834-.059.277-.041.527-.123.75-.246.225-.125.405-.299.54-.523.136-.223.205-.516.205-.876v-3.191c0-.24.013-.416.042-.529.028-.112.122-.168.282-.168.088 0 .191.02.312.06v-.792c-.177-.104-.42-.155-.732-.155M348.36 346.29v-1.309h.023c.249.504.553.876.913 1.117.36.239.816.351 1.369.335v-1.08c-.408 0-.756-.055-1.045-.168a1.643 1.643 0 01-.695-.492 2.023 2.023 0 01-.385-.786 4.244 4.244 0 01-.119-1.062v-2.76H347.4v6.205zM354.45 341.12c.236.139.426.323.57.551.145.228.25.486.319.774.067.288.101.576.101.864 0 .272-.031.54-.095.805a2.23 2.23 0 01-.307.713c-.14.213-.322.383-.545.51-.225.129-.496.193-.816.193-.329 0-.609-.062-.84-.186a1.63 1.63 0 01-.571-.499 2.126 2.126 0 01-.324-.719 3.514 3.514 0 01-.101-.853c0-.28.027-.559.084-.84.055-.28.152-.534.287-.762.136-.228.316-.412.541-.551.223-.141.504-.211.84-.211s.621.07.857.211m1.303-2.791c-.465-.504-1.193-.756-2.184-.756a4.23 4.23 0 00-.883.096 2.713 2.713 0 00-.816.312 1.914 1.914 0 00-.606.565 1.59 1.59 0 00-.263.851h1.019a.758.758 0 01.174-.467c.109-.128.24-.232.397-.312.156-.08.326-.139.509-.175.184-.036.36-.053.528-.053.337 0 .621.058.852.173.232.117.425.276.576.481.152.203.262.449.331.738.067.287.102.604.102.947v.409h-.024a1.719 1.719 0 00-.798-.846 2.475 2.475 0 00-1.135-.271c-.464 0-.867.084-1.211.252a2.521 2.521 0 00-.865.679 2.887 2.887 0 00-.522.996 4.097 4.097 0 00-.173 1.205c0 .368.047.746.144 1.135.096.387.256.739.48 1.056.223.315.52.575.887.78.368.203.821.306 1.356.306.392 0 .752-.087 1.08-.259s.584-.43.768-.774h.013v.889h.959v-5.677c0-1.015-.232-1.776-.695-2.28M362.13 344.46c-.092.216-.215.402-.371.558s-.341.28-.553.372a1.757 1.757 0 01-.701.138c-.265 0-.503-.047-.715-.138a1.664 1.664 0 01-.546-.378 1.839 1.839 0 01-.36-.558 2.103 2.103 0 01-.155-.679h3.563c-.015.241-.07.468-.162.685m.246-3.984c-.464-.352-1.048-.528-1.752-.528-.496 0-.926.08-1.289.24-.365.16-.671.383-.918.671a2.851 2.851 0 00-.558 1.033c-.125.4-.195.836-.21 1.308 0 .471.071.904.215 1.295.145.393.346.733.606 1.021a2.757 2.757 0 002.095.912c.551 0 1.009-.114 1.374-.343.363-.228.656-.518.876-.869.219-.353.372-.736.456-1.152s.117-.813.101-1.188h-4.643c-.009-.272.024-.53.095-.774a1.718 1.718 0 01.96-1.099c.248-.111.54-.168.876-.168.433 0 .786.1 1.062.301.277.199.459.504.547.912h1.008c-.137-.696-.436-1.221-.901-1.572M365.36 346.29v-1.309h.023c.248.504.553.876.912 1.117.36.239.817.351 1.369.335v-1.08c-.409 0-.756-.055-1.044-.168a1.65 1.65 0 01-.697-.492 2.034 2.034 0 01-.383-.786 4.242 4.242 0 01-.12-1.062v-2.76h-1.021v6.205zM318.26 330.99v.9h1.044v.924c0 .504.145.887.438 1.147.291.259.717.389 1.278.389.095 0 .206-.008.33-.024s.234-.039.33-.072v-.887a1.32 1.32 0 01-.288.065c-.105.012-.2.019-.288.019-.248 0-.44-.049-.576-.145-.136-.095-.204-.28-.204-.552v-.864h1.2v-.9h-1.2v-5.304h-1.02v5.304zM323.33 327.78c.1-.293.237-.537.414-.732a1.796 1.796 0 011.367-.607c.264 0 .514.052.75.156.237.105.442.254.618.451.176.195.314.439.415.732.1.291.149.625.149 1.002 0 .375-.049.709-.149 1.002-.101.291-.239.537-.415.737s-.381.353-.618.456a1.84 1.84 0 01-.75.156c-.263 0-.513-.052-.75-.156a1.747 1.747 0 01-.617-.456 2.15 2.15 0 01-.414-.737 3.068 3.068 0 01-.15-1.002c0-.377.049-.711.15-1.002m-1.039 2.279c.129.397.32.741.576 1.032.256.292.572.523.948.691s.808.252 1.296.252c.496 0 .93-.084 1.303-.252.371-.168.686-.399.941-.691.256-.291.448-.635.577-1.032a4.13 4.13 0 00.191-1.277c0-.457-.063-.881-.191-1.273a2.93 2.93 0 00-.577-1.026 2.656 2.656 0 00-.941-.683c-.373-.165-.807-.247-1.303-.247-.488 0-.92.082-1.296.247-.376.164-.692.391-.948.683s-.447.635-.576 1.026a4.107 4.107 0 00-.191 1.273c0 .455.064.881.191 1.277M330.25 331.89v-1.309h.023c.248.504.553.877.913 1.118.359.239.816.351 1.368.336v-1.081c-.408 0-.756-.056-1.044-.167a1.669 1.669 0 01-.697-.493 2.046 2.046 0 01-.383-.787 4.222 4.222 0 01-.12-1.061v-2.76h-1.021v6.204zM339.14 325.68v6.097h-2.207v.815c.287 0 .567.023.84.066.271.044.517.127.738.246.219.121.405.284.558.492.151.208.256.473.311.792h.78v-8.508zM343.22 332.38c.112.367.286.685.522.953.236.269.53.479.881.631.353.151.752.227 1.201.227.368 0 .713-.053 1.038-.161.324-.109.606-.264.845-.468.241-.204.431-.458.571-.762.14-.305.211-.656.211-1.057 0-.375-.059-.707-.175-.996a2.874 2.874 0 00-.462-.773 3.845 3.845 0 00-.66-.618 12.566 12.566 0 00-.768-.529c-.264-.16-.528-.317-.793-.473a6.174 6.174 0 01-.724-.498 3.305 3.305 0 01-.565-.57 1.63 1.63 0 01-.307-.703h4.37v-.899h-5.557c.04.504.13.934.269 1.29.141.355.319.666.535.929.215.264.46.497.732.697s.556.387.852.563c.36.225.676.431.948.619.271.188.498.377.678.57.179.192.316.399.408.624.092.224.139.484.139.779 0 .232-.045.443-.133.631a1.56 1.56 0 01-.354.486c-.148.135-.322.24-.522.312a1.892 1.892 0 01-.636.108c-.297 0-.551-.062-.762-.186a1.6 1.6 0 01-.522-.486 2.035 2.035 0 01-.294-.679 2.838 2.838 0 01-.078-.761h-1.02c-.024.432.02.832.132 1.2M350.84 328.8c.02-.396.084-.768.191-1.116.109-.349.283-.642.523-.882.239-.24.575-.36 1.008-.36.432 0 .768.12 1.008.36s.414.533.522.882c.107.348.172.72.191 1.116a21.562 21.562 0 01.025 1.764 5.823 5.823 0 01-.216 1.494c-.068.24-.168.449-.301.63-.131.18-.297.325-.498.438-.199.111-.443.168-.731.168s-.533-.057-.732-.168a1.537 1.537 0 01-.498-.438 1.968 1.968 0 01-.301-.63 5.823 5.823 0 01-.215-1.494 43.877 43.877 0 01-.006-.69c0-.32.009-.678.03-1.074m-1.086 2.033c.016.336.056.664.119.985.065.32.156.624.277.912.12.288.284.54.492.756s.469.388.786.515c.316.129.693.193 1.134.193.44 0 .817-.064 1.133-.193.317-.127.579-.299.787-.515s.372-.468.492-.756.212-.592.276-.912c.064-.321.104-.649.119-.985a19.23 19.23 0 000-1.943 6.514 6.514 0 00-.119-.985 4.679 4.679 0 00-.276-.906 2.463 2.463 0 00-.492-.75 2.194 2.194 0 00-.781-.51c-.311-.123-.691-.185-1.139-.185-.441 0-.818.062-1.134.185a2.18 2.18 0 00-.786.51 2.463 2.463 0 00-.492.75 4.68 4.68 0 00-.277.906 6.78 6.78 0 00-.119.985 19.208 19.208 0 000 1.943M361.39 329.68a2.265 2.265 0 01-.349.738c-.156.216-.355.388-.599.516s-.531.192-.858.192c-.344 0-.636-.068-.877-.204a1.755 1.755 0 01-.588-.534 2.271 2.271 0 01-.33-.75 3.623 3.623 0 01.006-1.734 2.22 2.22 0 01.342-.75c.156-.216.358-.39.607-.522.248-.133.547-.198.9-.198.351 0 .645.067.882.204.236.136.425.317.57.54.144.224.248.48.312.769.063.287.096.584.096.886 0 .289-.039.571-.114.847m-3.666 2.202v-.84h.024c.168.344.432.594.791.75.361.157.756.235 1.189.235.479 0 .897-.089 1.254-.265.356-.177.651-.414.887-.714.237-.301.414-.646.535-1.038.12-.392.18-.808.18-1.248s-.058-.856-.174-1.248a2.949 2.949 0 00-.529-1.026 2.488 2.488 0 00-.887-.69c-.357-.168-.771-.252-1.242-.252a3.066 3.066 0 00-1.068.203c-.184.073-.358.17-.522.295a1.63 1.63 0 00-.414.462h-.024v-3.192h-1.021v8.568zM363.29 331.89h1.309l1.487-2.172 1.548 2.172h1.224l-2.136-2.855 2.4-3.349h-1.309l-1.727 2.567-1.728-2.567h-1.236l2.328 3.265zM379.19 329.13v-.816h-2.616v-2.628h-.816v2.628h-2.616v.816h2.616v2.627h.816v-2.627z" fill="#176fc1"/><path d="M152.61 168.55c-8.995 0-16.288-7.293-16.288-16.29 0-7.197 4.667-13.302 11.14-15.457.815-.149 1.112.354 1.112.786 0 .386-.014 1.411-.022 2.77-4.531-.984-5.487 2.184-5.487 2.184-.741 1.882-1.809 2.383-1.809 2.383-1.479 1.01.112.99.112.99 1.635-.115 2.495-1.679 2.495-1.679 1.453-2.489 3.813-1.77 4.741-1.353.148 1.052.568 1.77 1.034 2.177-3.617.411-7.42 1.809-7.42 8.051 0 1.778.635 3.232 1.677 4.371-.168.412-.727 2.068.159 4.311 0 0 1.368.438 4.48-1.67a15.56 15.56 0 004.078.548 15.582 15.582 0 004.078-.548c3.11 2.108 4.475 1.67 4.475 1.67.889-2.243.33-3.899.162-4.311 1.044-1.139 1.675-2.593 1.675-4.371 0-6.258-3.809-7.635-7.438-8.038.585-.503 1.106-1.497 1.106-3.017 0-2.177-.02-3.934-.02-4.468 0-.436.293-.943 1.12-.784 6.468 2.159 11.131 8.26 11.131 15.455 0 8.997-7.294 16.29-16.291 16.29M350.61 217.55c-33.347 0-60.388-27.035-60.388-60.388 0-26.68 17.303-49.316 41.297-57.301 3.018-.559 4.126 1.31 4.126 2.905 0 1.439-.056 6.197-.082 11.243-16.8-3.653-20.345 7.125-20.345 7.125-2.747 6.979-6.705 8.836-6.705 8.836-5.479 3.748.413 3.671.413 3.671 6.064-.426 9.257-6.224 9.257-6.224 5.386-9.231 14.127-6.562 17.573-5.019.543 3.902 2.107 6.567 3.834 8.075-13.413 1.526-27.513 6.705-27.513 29.844 0 6.592 2.359 11.979 6.222 16.208-.627 1.522-2.694 7.664.586 15.982 0 0 5.071 1.622 16.61-6.191 4.817 1.338 9.983 2.009 15.115 2.033 5.132-.024 10.302-.695 15.128-2.033 11.526 7.813 16.59 6.191 16.59 6.191 3.287-8.318 1.22-14.46.593-15.982 3.872-4.229 6.214-9.616 6.214-16.208 0-23.195-14.127-28.301-27.574-29.796 2.166-1.874 4.096-5.549 4.096-11.183 0-8.08-.069-14.583-.069-16.572 0-1.608 1.086-3.491 4.147-2.898 23.982 7.994 41.263 30.622 41.263 57.294 0 33.353-27.037 60.388-60.388 60.388" fill="#fff" fill-rule="evenodd"/><path d="M313.09 130.85c-.133-.301-.605-.391-1.035-.184-.439.197-.684.606-.542.907.13.308.602.394 1.04.188.438-.197.688-.61.537-.911M315.54 128.12c-.288-.267-.852-.143-1.233.279-.396.421-.469.985-.177 1.255.297.267.843.142 1.238-.279.396-.426.473-.985.172-1.255M317.92 124.65c-.37-.258-.976-.017-1.35.52-.37.538-.37 1.182.009 1.44.374.258.971.025 1.35-.507.369-.546.369-1.19-.009-1.453M321.18 121.29c-.331-.365-1.036-.267-1.552.231-.528.487-.675 1.178-.344 1.543.336.366 1.045.263 1.565-.231.524-.486.683-1.182.331-1.543M325.68 119.33c-.147-.473-.825-.687-1.509-.486-.683.207-1.13.76-.992 1.238.142.477.824.7 1.513.485.682-.206 1.13-.756.988-1.237M330.62 118.97c.017-.498-.563-.911-1.281-.92-.722-.017-1.307.387-1.315.877 0 .503.568.911 1.289.924.718.014 1.307-.387 1.307-.881M335.22 119.75c.086-.485-.413-.984-1.126-1.117-.701-.129-1.35.172-1.439.653-.087.498.42.997 1.121 1.126.714.124 1.353-.168 1.444-.662" fill="#fff"/><path d="M224.9 223.49v-.5" fill="none" stroke="#3a7fc3" stroke-linecap="round" stroke-miterlimit="10"/><path d="M224.9 220.99V87" fill="none" stroke="#3a7fc3" stroke-dasharray="1, 2" stroke-linecap="round" stroke-miterlimit="10"/><path d="M224.9 85.995v-.5" fill="none" stroke="#3a7fc3" stroke-linecap="round" stroke-miterlimit="10"/><path d="M133.28 71.48c-.38.276-.866.414-1.458.414-.24 0-.476-.024-.708-.071a1.903 1.903 0 01-.618-.241 1.263 1.263 0 01-.432-.451c-.108-.187-.162-.422-.162-.701 0-.264.078-.478.234-.642.156-.165.364-.298.624-.402s.554-.19.882-.259c.328-.067.662-.141 1.002-.22.34-.08.674-.175 1.002-.284.328-.107.622-.253.882-.437s.468-.416.624-.695c.156-.282.234-.633.234-1.057 0-.456-.102-.846-.306-1.17s-.466-.588-.786-.792-.678-.352-1.074-.444a5.209 5.209 0 00-2.544.042c-.428.12-.804.302-1.128.546s-.58.556-.768.936-.282.829-.282 1.35h1.08c0-.361.07-.67.21-.93a1.9 1.9 0 01.552-.642c.228-.167.494-.292.798-.373.304-.08.616-.119.936-.119.256 0 .514.024.774.073.26.046.494.128.702.246.208.115.376.273.504.472.128.201.192.457.192.769 0 .296-.078.536-.234.72-.156.183-.364.334-.624.45s-.554.21-.882.282l-1.002.223c-.34.075-.674.163-1.002.263s-.622.232-.882.396-.468.376-.624.636c-.156.259-.234.586-.234.978 0 .432.088.806.264 1.122s.41.575.702.78c.292.204.624.356.996.456s.754.15 1.146.15c.44 0 .848-.053 1.224-.156.376-.104.706-.268.99-.493.284-.223.508-.505.672-.845s.254-.746.27-1.218h-1.08c-.064.616-.286 1.062-.666 1.338M137.55 70.285v-.912h.024c.464.705 1.132 1.057 2.004 1.057.384 0 .732-.081 1.044-.241s.532-.431.66-.816c.208.336.482.596.822.78.34.185.714.277 1.122.277.312 0 .594-.035.846-.102a1.77 1.77 0 00.648-.318c.18-.145.32-.33.42-.559.1-.228.15-.502.15-.822v-4.547h-1.02v4.067c0 .193-.016.372-.048.54s-.092.315-.18.438a.9.9 0 01-.366.295c-.156.072-.358.107-.606.107-.504 0-.9-.143-1.188-.431-.288-.289-.432-.672-.432-1.153v-3.863h-1.02v4.067c0 .2-.018.384-.054.552s-.098.314-.186.438a.871.871 0 01-.354.289 1.373 1.373 0 01-.57.101c-.296 0-.55-.059-.762-.18a1.724 1.724 0 01-.894-1.404v-3.863h-1.02v6.203zM150.17 67.076a7.313 7.313 0 00-.654-.108c-.228-.029-.458-.06-.69-.097-.232-.035-.44-.094-.624-.174s-.334-.193-.45-.342c-.116-.148-.174-.349-.174-.605 0-.168.034-.311.102-.426a.844.844 0 01.264-.283c.108-.071.236-.123.384-.155a2.06 2.06 0 01.45-.048c.336 0 .624.045.864.137s.436.208.588.349c.152.139.264.291.336.455s.108.318.108.463v1.043a1.255 1.255 0 00-.504-.209m1.428-3.127c-.264 0-.474.074-.63.223-.156.147-.234.389-.234.725a2.428 2.428 0 00-.978-.725 3.213 3.213 0 00-1.206-.223c-.28 0-.544.03-.792.09s-.466.16-.654.301c-.188.139-.336.319-.444.539s-.162.486-.162.799c0 .351.06.639.18.863s.278.406.474.547c.196.139.42.246.672.318.252.071.51.131.774.18.28.055.546.097.798.125s.474.068.666.121c.192.051.344.127.456.227.112.101.168.246.168.439 0 .223-.042.403-.126.539a.857.857 0 01-.324.312c-.132.073-.28.121-.444.145a3.498 3.498 0 01-.486.035c-.432 0-.792-.082-1.08-.246s-.444-.474-.468-.93h-1.02c.016.384.096.708.24.973.144.264.336.478.576.642.24.163.516.282.828.354.312.071.64.108.984.108.28 0 .558-.02.834-.061.276-.039.526-.121.75-.246.224-.123.404-.298.54-.522s.204-.515.204-.876v-3.192c0-.24.014-.416.042-.527.028-.113.122-.168.282-.168.088 0 .192.019.312.059v-.792c-.176-.103-.42-.156-.732-.156M154.35 64.082h-1.02v8.567h1.02zM157.02 64.082H156v8.567h1.02zM101.85 54.986v.899h1.044v.924c0 .504.146.886.438 1.146s.718.39 1.278.39c.096 0 .206-.007.33-.023.124-.017.234-.041.33-.072v-.889a1.214 1.214 0 01-.288.066c-.104.012-.2.018-.288.018-.248 0-.44-.048-.576-.144s-.204-.28-.204-.551v-.865h1.2v-.899h-1.2v-5.305h-1.02v5.305zM106.92 51.775c.1-.292.238-.535.414-.732.176-.196.382-.346.618-.45.236-.103.486-.156.75-.156s.514.053.75.156c.236.104.442.254.618.45.176.197.314.44.414.732s.15.626.15 1.002c0 .377-.05.71-.15 1.002-.1.293-.238.538-.414.738a1.775 1.775 0 01-.618.456c-.236.105-.486.156-.75.156s-.514-.051-.75-.156a1.775 1.775 0 01-.618-.456 2.153 2.153 0 01-.414-.738c-.1-.292-.15-.625-.15-1.002 0-.376.05-.71.15-1.002m-1.038 2.28c.128.396.32.74.576 1.033.256.291.572.521.948.689s.808.252 1.296.252c.496 0 .93-.084 1.302-.252s.686-.398.942-.689c.256-.293.448-.637.576-1.033.128-.395.192-.822.192-1.278 0-.455-.064-.88-.192-1.272s-.32-.734-.576-1.026-.57-.52-.942-.684-.806-.246-1.302-.246c-.488 0-.92.082-1.296.246s-.692.392-.948.684-.448.634-.576 1.026-.192.817-.192 1.272c0 .456.064.883.192 1.278M113.84 55.886v-1.308h.024c.248.504.552.875.912 1.116.36.24.816.351 1.368.336v-1.08c-.408 0-.756-.056-1.044-.168s-.52-.276-.696-.493c-.176-.214-.304-.477-.384-.785s-.12-.662-.12-1.062v-2.76h-1.02v6.204zM122.73 49.682v6.096h-2.208v.816c.288 0 .568.022.84.067.272.042.518.125.738.246.22.119.406.283.558.491s.256.472.312.792h.78v-8.508zM128.83 54.104c-.216-.1-.4-.236-.552-.408s-.266-.376-.341-.612a2.403 2.403 0 01-.115-.75c0-.263.04-.511.12-.744.08-.232.194-.431.342-.599s.332-.303.552-.403.47-.15.75-.15.526.05.738.15.39.239.534.414c.144.176.254.378.33.606s.114.467.114.715c0 .263-.034.513-.102.75-.068.235-.174.439-.318.611s-.324.311-.54.414c-.216.104-.468.156-.756.156s-.54-.05-.756-.15m1.848 2.838c-.248.232-.576.348-.984.348-.432 0-.78-.106-1.044-.318s-.47-.479-.618-.804a3.883 3.883 0 01-.306-1.05 8.603 8.603 0 01-.096-1.056l.024-.024c.24.392.538.675.894.852.356.176.766.265 1.23.265.408 0 .774-.071 1.098-.211s.596-.334.816-.582.391-.539.51-.875c.12-.337.18-.701.18-1.093 0-.311-.048-.636-.144-.972s-.254-.642-.474-.918-.512-.504-.876-.683c-.364-.181-.814-.271-1.35-.271-.632 0-1.14.128-1.524.384s-.68.584-.888.984-.346.84-.414 1.321a9.9 9.9 0 00-.102 1.391c0 .583.05 1.15.15 1.699.1.546.27 1.033.511 1.457.239.423.559.763.959 1.02.4.256.904.384 1.512.384.704 0 1.264-.186 1.68-.558s.656-.91.72-1.614h-1.02c-.048.385-.196.691-.444.924M138.32 53.684a2.303 2.303 0 01-.348.738c-.156.216-.356.388-.6.516s-.531.192-.858.192c-.344 0-.636-.068-.876-.204-.24-.137-.436-.314-.588-.534s-.262-.47-.33-.75a3.549 3.549 0 01-.102-.853c0-.303.036-.597.108-.88.071-.286.186-.536.341-.75.157-.217.358-.391.607-.523.247-.132.548-.198.9-.198.351 0 .646.068.882.204s.425.315.569.54c.145.224.249.481.312.768.064.289.097.584.097.888 0 .287-.038.571-.114.846m-3.666 2.202v-.841h.024c.168.345.431.595.792.75.36.156.756.235 1.188.235.48 0 .898-.088 1.254-.264s.652-.414.888-.714.413-.646.534-1.038c.12-.392.18-.809.18-1.248 0-.44-.058-.856-.175-1.248a2.914 2.914 0 00-.527-1.025 2.49 2.49 0 00-.888-.691c-.357-.168-.771-.252-1.242-.252-.153 0-.323.017-.511.048a2.805 2.805 0 00-.557.156c-.184.072-.359.17-.522.294a1.643 1.643 0 00-.414.462h-.024v-3.191h-1.02v8.567zM140.22 55.886h1.308l1.488-2.172 1.548 2.172h1.224l-2.136-2.856 2.4-3.348h-1.308l-1.728 2.568-1.728-2.568h-1.236l2.328 3.264zM150.22 52.537h-3.468v.961h3.468zM154.08 49.682v6.096h-2.208v.816c.288 0 .568.022.84.067.272.042.518.125.738.246.22.119.406.283.558.491s.256.472.312.792h.78v-8.508zM158.16 56.377c.112.369.286.686.522.955.236.268.53.478.882.629a3 3 0 001.2.228c.368 0 .714-.053 1.038-.162.324-.107.606-.263.846-.467s.43-.458.57-.762.21-.656.21-1.056c0-.377-.058-.709-.174-.996a2.834 2.834 0 00-.462-.774 3.845 3.845 0 00-.66-.618c-.248-.184-.504-.36-.768-.528-.264-.16-.528-.318-.792-.474a6.507 6.507 0 01-.726-.498 3.268 3.268 0 01-.564-.571 1.603 1.603 0 01-.306-.701h4.368v-.9h-5.556c.04.504.13.933.27 1.29.14.356.318.666.534.93s.46.495.732.696c.272.199.556.387.852.564.36.224.676.43.948.617a4.2 4.2 0 01.678.571c.18.191.316.4.408.624.092.223.138.483.138.78a1.49 1.49 0 01-1.008 1.428c-.2.072-.412.107-.636.107-.297 0-.55-.061-.762-.185s-.386-.287-.522-.487a2.025 2.025 0 01-.294-.677 2.887 2.887 0 01-.078-.762h-1.02c-.024.431.02.832.132 1.199M165.78 52.795c.02-.396.084-.768.192-1.115.108-.348.282-.643.522-.882.24-.24.576-.36 1.008-.36s.768.12 1.008.36c.24.239.414.534.522.882.108.347.172.719.192 1.115s.03.755.03 1.074c0 .209-.002.439-.006.691a6 6 0 01-.216 1.494c-.068.239-.168.45-.3.63a1.543 1.543 0 01-.498.437c-.2.112-.444.168-.732.168s-.532-.056-.732-.168a1.543 1.543 0 01-.498-.437 1.966 1.966 0 01-.3-.63 6 6 0 01-.216-1.494 43.796 43.796 0 01-.006-.691c0-.319.01-.678.03-1.074m-1.086 2.035c.016.336.056.664.12.983.064.32.156.625.276.913s.284.54.492.755c.208.216.47.388.786.517.316.127.694.192 1.134.192s.818-.065 1.134-.192c.316-.129.578-.301.786-.517.208-.215.372-.467.492-.755s.212-.593.276-.913c.064-.319.104-.647.12-.983a20.463 20.463 0 000-1.944c-.016-.336-.056-.664-.12-.984s-.156-.623-.276-.906a2.416 2.416 0 00-.492-.75 2.159 2.159 0 00-.78-.51c-.312-.125-.692-.186-1.14-.186-.44 0-.818.061-1.134.186a2.15 2.15 0 00-.786.51 2.416 2.416 0 00-.492.75c-.12.283-.212.586-.276.906s-.104.648-.12.984a20.413 20.413 0 000 1.944M176.33 53.684a2.303 2.303 0 01-.348.738c-.156.216-.356.388-.6.516s-.531.192-.858.192c-.344 0-.636-.068-.876-.204-.24-.137-.436-.314-.588-.534s-.262-.47-.33-.75a3.549 3.549 0 01-.102-.853c0-.303.036-.597.108-.88.071-.286.186-.536.342-.75a1.73 1.73 0 01.606-.523c.248-.132.548-.198.9-.198.351 0 .646.068.882.204s.425.315.57.54c.144.224.248.481.312.768.063.289.096.584.096.888 0 .287-.038.571-.114.846m-3.666 2.202v-.841h.024c.168.345.431.595.792.75.36.156.756.235 1.188.235.48 0 .898-.088 1.254-.264s.652-.414.888-.714.413-.646.534-1.038c.12-.392.18-.809.18-1.248 0-.44-.058-.856-.174-1.248a2.933 2.933 0 00-.528-1.025c-.236-.293-.532-.523-.888-.691s-.771-.252-1.242-.252c-.152 0-.323.017-.51.048a2.814 2.814 0 00-.558.156c-.184.072-.358.17-.522.294s-.302.278-.414.462h-.024v-3.191h-1.02v8.567zM178.23 55.886h1.308l1.488-2.172 1.548 2.172h1.224l-2.136-2.856 2.4-3.348h-1.308l-1.728 2.568-1.728-2.568h-1.236l2.328 3.264zM335.63 72.65v-7.607h4.536v-.961h-5.676v8.568zM344.33 67.076a7.378 7.378 0 00-.654-.107 29.337 29.337 0 01-.691-.096 2.641 2.641 0 01-.624-.174 1.134 1.134 0 01-.449-.343c-.117-.147-.174-.35-.174-.606a.83.83 0 01.102-.426.846.846 0 01.264-.281 1.08 1.08 0 01.384-.156c.148-.033.297-.049.45-.049.335 0 .624.047.864.138.239.092.435.208.588.348a1.4 1.4 0 01.336.457c.071.163.108.317.108.461v1.045a1.283 1.283 0 00-.504-.211m1.428-3.125c-.264 0-.475.073-.631.221-.155.148-.233.39-.233.726a2.454 2.454 0 00-.978-.726 3.237 3.237 0 00-1.207-.221c-.279 0-.543.029-.791.09-.248.059-.467.16-.654.299-.188.14-.336.32-.444.541-.109.219-.162.486-.162.798 0 .351.06.639.18.864.119.223.277.405.474.545.196.14.419.246.671.318s.511.133.775.18c.279.056.546.098.798.127.252.027.473.067.666.119.192.053.343.129.456.228.111.1.168.246.168.438 0 .224-.042.404-.126.541a.876.876 0 01-.324.311 1.301 1.301 0 01-.445.144 3.353 3.353 0 01-.485.037c-.433 0-.792-.083-1.08-.246-.288-.164-.445-.475-.468-.931h-1.021c.017.384.097.708.241.972.143.264.336.479.575.643.24.164.517.281.828.353.313.072.641.108.984.108.281 0 .559-.02.834-.059.277-.041.527-.123.75-.246.225-.125.405-.299.54-.523.136-.223.205-.516.205-.876v-3.191c0-.24.013-.416.042-.529.028-.112.122-.168.282-.168.088 0 .191.02.312.06v-.792c-.177-.104-.42-.155-.732-.155M348.36 70.287v-1.309h.023c.249.504.553.876.913 1.117.36.239.816.351 1.369.335v-1.08c-.408 0-.756-.055-1.045-.168a1.643 1.643 0 01-.695-.492 2.023 2.023 0 01-.385-.786 4.244 4.244 0 01-.119-1.062v-2.76H347.4v6.205zM354.45 65.121c.236.139.426.323.57.551.145.228.25.486.319.774.067.288.101.576.101.864 0 .272-.031.54-.095.805a2.23 2.23 0 01-.307.713c-.14.213-.322.383-.545.51-.225.129-.496.193-.816.193-.329 0-.609-.062-.84-.186a1.63 1.63 0 01-.571-.499 2.126 2.126 0 01-.324-.719 3.514 3.514 0 01-.101-.853c0-.28.027-.559.084-.84.055-.28.152-.534.287-.762.136-.228.316-.412.541-.551.223-.141.504-.211.84-.211s.621.07.857.211m1.303-2.791c-.465-.504-1.193-.756-2.184-.756a4.23 4.23 0 00-.883.096 2.713 2.713 0 00-.816.312 1.914 1.914 0 00-.606.565 1.59 1.59 0 00-.263.851h1.019a.763.763 0 01.174-.468c.109-.127.24-.231.397-.311.156-.08.326-.139.509-.175.184-.036.36-.054.528-.054.337 0 .621.059.852.174.232.116.425.276.576.481.152.203.262.449.331.738.067.287.102.604.102.947v.409h-.024a1.719 1.719 0 00-.798-.846 2.475 2.475 0 00-1.135-.271c-.464 0-.867.084-1.211.252a2.521 2.521 0 00-.865.679 2.887 2.887 0 00-.522.996 4.097 4.097 0 00-.173 1.205c0 .368.047.746.144 1.135.096.387.256.739.48 1.056.223.315.52.575.887.78.368.203.821.305 1.356.305.392 0 .752-.086 1.08-.258s.584-.43.768-.774h.013v.889h.959V64.61c0-1.015-.232-1.776-.695-2.28M362.13 68.463c-.092.216-.215.402-.371.558s-.341.28-.553.372a1.757 1.757 0 01-.701.138c-.265 0-.503-.047-.715-.138a1.664 1.664 0 01-.546-.378 1.839 1.839 0 01-.36-.558 2.103 2.103 0 01-.155-.679h3.563c-.015.241-.07.468-.162.685m.246-3.984c-.464-.352-1.048-.528-1.752-.528-.496 0-.926.08-1.289.239a2.538 2.538 0 00-.918.672 2.851 2.851 0 00-.558 1.033c-.125.4-.195.836-.21 1.308 0 .471.071.903.215 1.295.145.393.346.733.606 1.021s.568.511.925.671a2.8 2.8 0 001.17.241c.551 0 1.009-.114 1.374-.343.363-.228.656-.518.876-.869.219-.353.372-.736.456-1.152s.117-.813.101-1.188h-4.643c-.009-.273.024-.53.095-.774a1.718 1.718 0 01.96-1.099c.248-.111.54-.168.876-.168.433 0 .786.1 1.062.301.277.199.459.504.547.912h1.008c-.137-.696-.436-1.221-.901-1.572M365.36 70.287v-1.309h.023c.248.504.553.876.912 1.117.36.239.817.351 1.369.335v-1.08c-.409 0-.756-.055-1.044-.168a1.65 1.65 0 01-.697-.492 2.034 2.034 0 01-.383-.786 4.242 4.242 0 01-.12-1.062v-2.76h-1.021v6.205zM318.26 54.986v.9h1.044v.924c0 .504.145.887.438 1.147.291.259.717.389 1.278.389.095 0 .206-.008.33-.024s.234-.039.33-.072v-.887a1.32 1.32 0 01-.288.065c-.105.012-.2.019-.288.019-.248 0-.44-.049-.576-.145-.136-.095-.204-.28-.204-.552v-.864h1.2v-.9h-1.2v-5.304h-1.02v5.304zM323.33 51.777c.1-.293.237-.537.414-.732a1.796 1.796 0 011.367-.607c.264 0 .514.052.75.156.237.105.442.254.618.451.176.195.314.439.415.732.1.291.149.625.149 1.002 0 .375-.049.709-.149 1.002-.101.291-.239.537-.415.737s-.381.353-.618.456a1.84 1.84 0 01-.75.157c-.263 0-.513-.053-.75-.157a1.747 1.747 0 01-.617-.456 2.15 2.15 0 01-.414-.737 3.068 3.068 0 01-.15-1.002c0-.377.049-.711.15-1.002m-1.039 2.279c.129.397.32.741.576 1.032.256.293.572.523.948.691s.808.252 1.296.252c.496 0 .93-.084 1.303-.252.371-.168.686-.398.941-.691.256-.291.448-.635.577-1.032a4.13 4.13 0 00.191-1.277c0-.457-.063-.881-.191-1.272a2.926 2.926 0 00-.577-1.027 2.656 2.656 0 00-.941-.683c-.373-.165-.807-.247-1.303-.247-.488 0-.92.082-1.296.247-.376.164-.692.391-.948.683s-.447.635-.576 1.027a4.096 4.096 0 00-.191 1.272c0 .455.064.881.191 1.277M330.25 55.887v-1.309h.023c.248.504.553.877.913 1.118.359.239.816.351 1.368.336v-1.081c-.408 0-.756-.056-1.044-.168a1.658 1.658 0 01-.697-.492 2.046 2.046 0 01-.383-.787 4.222 4.222 0 01-.12-1.061v-2.76h-1.021v6.204zM339.14 49.683v6.097h-2.207v.815c.287 0 .567.023.84.065.271.045.517.128.738.247.219.121.405.284.558.492.151.208.256.473.311.792h.78v-8.508zM343.22 56.379c.112.367.286.686.522.953.236.269.53.479.881.631.353.151.752.227 1.201.227.368 0 .713-.053 1.038-.161.324-.109.606-.264.845-.468.241-.205.431-.458.571-.762.14-.305.211-.656.211-1.057 0-.375-.059-.707-.175-.996a2.874 2.874 0 00-.462-.773 3.845 3.845 0 00-.66-.618 12.566 12.566 0 00-.768-.529c-.264-.16-.528-.317-.793-.473a6.174 6.174 0 01-.724-.498 3.305 3.305 0 01-.565-.57 1.63 1.63 0 01-.307-.703h4.37v-.899h-5.557c.04.504.13.934.269 1.29.141.355.319.666.535.929.215.264.46.497.732.697s.556.387.852.563c.36.225.676.431.948.619.271.188.498.377.678.57.179.192.316.399.408.624.092.224.139.484.139.779 0 .232-.045.443-.133.631a1.56 1.56 0 01-.354.486c-.148.135-.322.24-.522.312a1.892 1.892 0 01-.636.108c-.297 0-.551-.062-.762-.186a1.6 1.6 0 01-.522-.486 2.044 2.044 0 01-.294-.679 2.838 2.838 0 01-.078-.761h-1.02c-.024.432.02.832.132 1.2M350.84 52.797c.02-.396.084-.768.191-1.116.109-.349.283-.642.523-.882.239-.24.575-.36 1.008-.36.432 0 .768.12 1.008.36s.414.533.522.882c.107.348.172.72.191 1.116a21.562 21.562 0 01.025 1.764 5.823 5.823 0 01-.216 1.494c-.068.24-.168.449-.301.63-.131.18-.297.325-.498.438-.199.111-.443.168-.731.168s-.533-.057-.732-.168a1.537 1.537 0 01-.498-.438 1.968 1.968 0 01-.301-.63 5.823 5.823 0 01-.215-1.494 43.877 43.877 0 01-.006-.69c0-.32.009-.678.03-1.074m-1.086 2.033c.016.336.056.664.119.985.065.32.156.624.277.912.12.288.284.54.492.756s.469.388.786.515c.316.129.693.193 1.134.193.44 0 .817-.064 1.133-.193.317-.127.579-.299.787-.515s.372-.468.492-.756.212-.592.276-.912c.064-.321.104-.649.119-.985a19.23 19.23 0 000-1.943 6.514 6.514 0 00-.119-.985 4.679 4.679 0 00-.276-.906 2.463 2.463 0 00-.492-.75 2.207 2.207 0 00-.781-.51c-.311-.123-.691-.185-1.139-.185-.441 0-.818.062-1.134.185a2.193 2.193 0 00-.786.51 2.463 2.463 0 00-.492.75 4.68 4.68 0 00-.277.906 6.78 6.78 0 00-.119.985 19.208 19.208 0 000 1.943M361.39 53.684a2.265 2.265 0 01-.349.738c-.156.216-.355.388-.599.516s-.531.192-.858.192c-.344 0-.636-.068-.877-.204a1.755 1.755 0 01-.588-.534 2.271 2.271 0 01-.33-.75 3.623 3.623 0 01.006-1.734 2.22 2.22 0 01.342-.75c.156-.216.358-.39.607-.522.248-.133.547-.198.9-.198.351 0 .645.067.882.204.236.136.425.316.57.54.144.224.248.48.312.769.063.287.096.584.096.886 0 .289-.039.571-.114.847m-3.666 2.202v-.84h.024c.168.344.432.594.791.75.361.157.756.235 1.189.235.479 0 .897-.089 1.254-.265.356-.177.651-.414.887-.714.237-.301.414-.646.535-1.038.12-.392.18-.808.18-1.248s-.058-.856-.174-1.248a2.949 2.949 0 00-.529-1.026 2.488 2.488 0 00-.887-.69c-.357-.168-.771-.252-1.242-.252a3.066 3.066 0 00-1.068.203c-.184.073-.358.17-.522.295a1.63 1.63 0 00-.414.462h-.024v-3.192h-1.021v8.568zM363.29 55.887h1.309l1.487-2.172 1.548 2.172h1.224l-2.136-2.855 2.4-3.349h-1.309l-1.727 2.567-1.728-2.567h-1.236l2.328 3.265zM379.19 53.127v-.816h-2.616v-2.628h-.816v2.628h-2.616v.816h2.616v2.627h.816v-2.627z" fill="#176fc1"/></g></svg>